#N canvas -8 -8 1920 997 10;
#X msg 13 69 \; pd dsp \$1;
#X obj 371 918 dac~ 1 2;
#X obj 13 49 tgl 15 0 empty empty empty 17 7 0 10 -262144 -1 -1 1 1
;
#N canvas -1687 26 837 958 PianoRhythmLow 0;
#N canvas 0 50 450 250 (subpatch) 0;
#X array prlL 622588 float 2;
#X coords 0 1 622588 -1 200 140 1 0 0;
#X restore 489 213 graph;
#N canvas 0 50 450 250 (subpatch) 0;
#X array prlR 622588 float 2;
#X coords 0 1 622588 -1 200 140 1 0 0;
#X restore 489 379 graph;
#X obj 359 118 bng 15 250 50 0 empty empty empty 17 7 0 10 -262144
-1 -1;
#X obj 359 170 soundfiler;
#X floatatom 379 204 5 0 0 0 - - -;
#X obj 379 224 s sampleSize;
#X obj 359 250 expr 44100 / $f1;
#X obj 198 371 phasor~;
#X obj 198 412 *~;
#X obj 213 391 r sampleSize;
#X floatatom 376 281 5 0 0 0 - - -;
#X obj 102 690 *~;
#X obj 198 691 *~;
#X obj 289 640 vsl 30 50 0 1 0 0 empty empty empty 0 -9 0 10 -262144
-1 -1 1715 1;
#X obj 334 427 snapshot~;
#X obj 334 380 tgl 15 0 empty empty empty 17 7 0 10 -262144 -1 -1 1
1;
#X floatatom 334 448 5 0 0 0 - - -;
#X obj 334 488 /;
#X obj 349 468 r sampleSize;
#X floatatom 334 509 5 0 0 0 - - -;
#X obj 492 522 hsl 195 15 0 1 0 0 empty empty empty -2 -8 0 10 -262144
-1 -1 0 1;
#X msg 237 347 0;
#X msg 153 312 0;
#X obj 101 740 outlet~;
#X obj 199 780 outlet~;
#X obj 153 249 inlet;
#X obj 102 618 tabread4~ prlL;
#X obj 198 643 tabread4~ prlR;
#X obj 334 551 bng 15 250 50 0 empty empty empty 17 7 0 10 -262144
-1 -1;
#X text 355 551 sends bang on finishing playback;
#X text 268 697 volume control;
#X text 252 781 right sound outlet;
#X text 37 761 left sound outlet;
#X text 106 228 shutoff inlet;
#X text 14 22 This patch plays contantly throughout the song - use
to track when to add next instrument set;
#X obj 334 571 outlet;
#X text 356 65 Load soundfile inlet;
#X obj 334 359 loadbang;
#X obj 334 402 metro 10;
#X obj 334 532 threshold~ 0.999 0 1 0;
#X msg 359 149 read -resize PianoRhythmLow.wav prlL prlR;
#X obj 289 596 loadbang;
#X obj 359 89 loadbang;
#X obj 198 143 inlet;
#X msg 198 164 0.07;
#X floatatom 423 713 5 0 0 0 - - -;
#X msg 289 617 0.35;
#X connect 2 0 40 0;
#X connect 3 0 4 0;
#X connect 3 0 6 0;
#X connect 4 0 5 0;
#X connect 6 0 10 0;
#X connect 7 0 8 0;
#X connect 8 0 14 0;
#X connect 8 0 26 0;
#X connect 8 0 27 0;
#X connect 9 0 8 1;
#X connect 11 0 23 0;
#X connect 12 0 24 0;
#X connect 13 0 11 1;
#X connect 13 0 12 1;
#X connect 13 0 45 0;
#X connect 14 0 16 0;
#X connect 15 0 38 0;
#X connect 16 0 17 0;
#X connect 17 0 19 0;
#X connect 18 0 17 1;
#X connect 19 0 20 0;
#X connect 19 0 39 0;
#X connect 21 0 7 1;
#X connect 22 0 7 0;
#X connect 25 0 22 0;
#X connect 25 0 21 0;
#X connect 26 0 11 0;
#X connect 27 0 12 0;
#X connect 28 0 35 0;
#X connect 37 0 15 0;
#X connect 38 0 14 0;
#X connect 39 0 28 0;
#X connect 40 0 3 0;
#X connect 41 0 46 0;
#X connect 42 0 2 0;
#X connect 43 0 44 0;
#X connect 44 0 7 0;
#X connect 46 0 13 0;
#X restore 293 137 pd PianoRhythmLow;
#X obj 380 116 bng 15 250 50 0 empty empty empty 17 7 0 10 -4034 -1
-1;
#N canvas -1716 141 1680 967 PianoMelodyD 0;
#N canvas 0 50 450 250 (subpatch) 0;
#X array pmdL 622588 float 2;
#X coords 0 1 622588 -1 200 140 1 0 0;
#X restore 489 213 graph;
#N canvas 0 50 450 250 (subpatch) 0;
#X array pmdR 622588 float 2;
#X coords 0 1 622588 -1 200 140 1 0 0;
#X restore 489 379 graph;
#X obj 359 118 bng 15 250 50 0 empty empty empty 17 7 0 10 -262144
-1 -1;
#X obj 359 170 soundfiler;
#X floatatom 379 204 5 0 0 0 - - -;
#X obj 379 224 s sampleSize;
#X obj 359 250 expr 44100 / $f1;
#X obj 198 371 phasor~;
#X obj 198 412 *~;
#X obj 213 391 r sampleSize;
#X floatatom 376 281 5 0 0 0 - - -;
#X obj 102 690 *~;
#X obj 198 691 *~;
#X obj 289 640 vsl 30 50 0 1 0 0 empty empty empty 0 -9 0 10 -262144
-1 -1 1495 1;
#X obj 334 427 snapshot~;
#X obj 334 380 tgl 15 0 empty empty empty 17 7 0 10 -262144 -1 -1 1
1;
#X floatatom 334 448 5 0 0 0 - - -;
#X obj 334 488 /;
#X obj 349 468 r sampleSize;
#X floatatom 334 509 5 0 0 0 - - -;
#X obj 492 522 hsl 195 15 0 1 0 0 empty empty empty -2 -8 0 10 -262144
-1 -1 0 1;
#X msg 237 347 0;
#X msg 153 312 0;
#X obj 101 740 outlet~;
#X obj 199 780 outlet~;
#X obj 153 249 inlet;
#X obj 334 551 bng 15 250 50 0 empty empty empty 17 7 0 10 -262144
-1 -1;
#X text 355 551 sends bang on finishing playback;
#X text 268 697 volume control;
#X text 252 781 right sound outlet;
#X text 37 761 left sound outlet;
#X text 106 228 shutoff inlet;
#X obj 334 571 outlet;
#X text 356 65 Load soundfile inlet;
#X obj 334 359 loadbang;
#X obj 334 402 metro 10;
#X obj 334 532 threshold~ 0.999 0 1 0;
#X obj 289 596 loadbang;
#X obj 359 89 loadbang;
#X obj 198 143 inlet;
#X msg 198 164 0.07;
#X text 14 22 This patch plays the melody in key of D;
#X msg 359 149 read -resize PianoMelodyD.wav pmdL pmdR;
#X obj 102 618 tabread4~ pmdL;
#X obj 198 643 tabread4~ pmdR;
#X floatatom 392 674 5 0 0 0 - - -;
#X msg 289 617 0.305;
#X connect 2 0 42 0;
#X connect 3 0 4 0;
#X connect 3 0 6 0;
#X connect 4 0 5 0;
#X connect 6 0 10 0;
#X connect 7 0 8 0;
#X connect 8 0 14 0;
#X connect 8 0 43 0;
#X connect 8 0 44 0;
#X connect 9 0 8 1;
#X connect 11 0 23 0;
#X connect 12 0 24 0;
#X connect 13 0 11 1;
#X connect 13 0 12 1;
#X connect 13 0 45 0;
#X connect 14 0 16 0;
#X connect 15 0 35 0;
#X connect 16 0 17 0;
#X connect 17 0 19 0;
#X connect 18 0 17 1;
#X connect 19 0 20 0;
#X connect 19 0 36 0;
#X connect 21 0 7 1;
#X connect 22 0 7 0;
#X connect 25 0 22 0;
#X connect 25 0 21 0;
#X connect 26 0 32 0;
#X connect 34 0 15 0;
#X connect 35 0 14 0;
#X connect 36 0 26 0;
#X connect 37 0 46 0;
#X connect 38 0 2 0;
#X connect 39 0 40 0;
#X connect 40 0 7 0;
#X connect 42 0 3 0;
#X connect 43 0 11 0;
#X connect 44 0 12 0;
#X connect 46 0 13 0;
#X restore 417 213 pd PianoMelodyD;
#X obj 33 371 bng 50 250 50 0 empty empty Master_Stop 0 -5 0 10 -258113
-1 -1;
#X obj 33 426 s stopM;
#X obj 257 100 r stopM;
#X obj 417 191 r stopM;
#X obj 501 187 bng 15 250 50 0 empty empty empty 17 7 0 10 -4034 -1
-1;
#N canvas -1688 18 1680 967 PianoRhythmHigh 0;
#N canvas 0 50 450 250 (subpatch) 0;
#X array prhL 622588 float 2;
#X coords 0 1 622588 -1 200 140 1 0 0;
#X restore 489 213 graph;
#N canvas 0 50 450 250 (subpatch) 0;
#X array prhR 622588 float 2;
#X coords 0 1 622588 -1 200 140 1 0 0;
#X restore 489 379 graph;
#X obj 359 118 bng 15 250 50 0 empty empty empty 17 7 0 10 -262144
-1 -1;
#X obj 359 170 soundfiler;
#X floatatom 379 204 5 0 0 0 - - -;
#X obj 379 224 s sampleSize;
#X obj 359 250 expr 44100 / $f1;
#X obj 198 371 phasor~;
#X obj 198 412 *~;
#X obj 213 391 r sampleSize;
#X floatatom 376 281 5 0 0 0 - - -;
#X obj 102 690 *~;
#X obj 198 691 *~;
#X obj 289 640 vsl 30 50 0 1 0 0 empty empty empty 0 -9 0 10 -262144
-1 -1 1495 1;
#X obj 334 427 snapshot~;
#X obj 334 380 tgl 15 0 empty empty empty 17 7 0 10 -262144 -1 -1 1
1;
#X floatatom 334 448 5 0 0 0 - - -;
#X obj 334 488 /;
#X obj 349 468 r sampleSize;
#X floatatom 334 509 5 0 0 0 - - -;
#X obj 492 522 hsl 195 15 0 1 0 0 empty empty empty -2 -8 0 10 -262144
-1 -1 0 1;
#X msg 237 347 0;
#X msg 153 312 0;
#X obj 101 740 outlet~;
#X obj 199 780 outlet~;
#X obj 153 249 inlet;
#X obj 334 551 bng 15 250 50 0 empty empty empty 17 7 0 10 -262144
-1 -1;
#X text 355 551 sends bang on finishing playback;
#X text 268 697 volume control;
#X text 252 781 right sound outlet;
#X text 37 761 left sound outlet;
#X text 106 228 shutoff inlet;
#X obj 334 571 outlet;
#X text 356 65 Load soundfile inlet;
#X obj 334 359 loadbang;
#X obj 334 402 metro 10;
#X obj 334 532 threshold~ 0.999 0 1 0;
#X obj 289 596 loadbang;
#X obj 359 89 loadbang;
#X obj 198 143 inlet;
#X msg 198 164 0.07;
#X text 14 22 This patch plays the high rhythm;
#X msg 360 148 read -resize PianoRhythmHigh.wav prhL prhR;
#X obj 102 618 tabread4~ prhL;
#X obj 198 643 tabread4~ prhR;
#X floatatom 366 681 5 0 0 0 - - -;
#X msg 289 617 0.305;
#X connect 2 0 42 0;
#X connect 3 0 4 0;
#X connect 3 0 6 0;
#X connect 4 0 5 0;
#X connect 6 0 10 0;
#X connect 7 0 8 0;
#X connect 8 0 14 0;
#X connect 8 0 43 0;
#X connect 8 0 44 0;
#X connect 9 0 8 1;
#X connect 11 0 23 0;
#X connect 12 0 24 0;
#X connect 13 0 11 1;
#X connect 13 0 12 1;
#X connect 13 0 45 0;
#X connect 14 0 16 0;
#X connect 15 0 35 0;
#X connect 16 0 17 0;
#X connect 17 0 19 0;
#X connect 18 0 17 1;
#X connect 19 0 20 0;
#X connect 19 0 36 0;
#X connect 21 0 7 1;
#X connect 22 0 7 0;
#X connect 25 0 22 0;
#X connect 25 0 21 0;
#X connect 26 0 32 0;
#X connect 34 0 15 0;
#X connect 35 0 14 0;
#X connect 36 0 26 0;
#X connect 37 0 46 0;
#X connect 38 0 2 0;
#X connect 39 0 40 0;
#X connect 40 0 7 0;
#X connect 42 0 3 0;
#X connect 43 0 11 0;
#X connect 44 0 12 0;
#X connect 46 0 13 0;
#X restore 535 320 pd PianoRhythmHigh;
#X obj 637 286 bng 15 250 50 0 empty empty empty 17 7 0 10 -4034 -1
-1;
#X obj 535 287 r stopM;
#X obj 777 286 bng 15 250 50 0 empty empty empty 17 7 0 10 -4034 -1
-1;
#X obj 675 287 r stopM;
#N canvas -1688 18 1680 967 Glock 0;
#N canvas 0 50 450 250 (subpatch) 0;
#X array gL 622588 float 2;
#X coords 0 1 622588 -1 200 140 1 0 0;
#X restore 489 213 graph;
#N canvas 0 50 450 250 (subpatch) 0;
#X array gR 622588 float 2;
#X coords 0 1 622588 -1 200 140 1 0 0;
#X restore 489 379 graph;
#X obj 359 118 bng 15 250 50 0 empty empty empty 17 7 0 10 -262144
-1 -1;
#X obj 359 170 soundfiler;
#X floatatom 379 204 5 0 0 0 - - -;
#X obj 379 224 s sampleSize;
#X obj 359 250 expr 44100 / $f1;
#X obj 198 371 phasor~;
#X obj 198 412 *~;
#X obj 213 391 r sampleSize;
#X floatatom 376 281 5 0 0 0 - - -;
#X obj 102 690 *~;
#X obj 198 691 *~;
#X obj 289 640 vsl 30 50 0 1 0 0 empty empty empty 0 -9 0 10 -262144
-1 -1 3298 1;
#X obj 334 427 snapshot~;
#X obj 334 380 tgl 15 0 empty empty empty 17 7 0 10 -262144 -1 -1 1
1;
#X floatatom 334 448 5 0 0 0 - - -;
#X obj 334 488 /;
#X obj 349 468 r sampleSize;
#X floatatom 334 509 5 0 0 0 - - -;
#X obj 492 522 hsl 195 15 0 1 0 0 empty empty empty -2 -8 0 10 -262144
-1 -1 0 1;
#X msg 237 347 0;
#X msg 153 312 0;
#X obj 101 740 outlet~;
#X obj 199 780 outlet~;
#X obj 153 249 inlet;
#X obj 334 551 bng 15 250 50 0 empty empty empty 17 7 0 10 -262144
-1 -1;
#X text 355 551 sends bang on finishing playback;
#X text 268 697 volume control;
#X text 252 781 right sound outlet;
#X text 37 761 left sound outlet;
#X text 106 228 shutoff inlet;
#X obj 334 571 outlet;
#X text 356 65 Load soundfile inlet;
#X obj 334 359 loadbang;
#X obj 334 402 metro 10;
#X obj 334 532 threshold~ 0.999 0 1 0;
#X obj 289 596 loadbang;
#X obj 359 89 loadbang;
#X obj 198 143 inlet;
#X msg 198 164 0.07;
#X text 14 22 This patch plays the high rhythm;
#X msg 360 148 read -resize Glock.wav gL gR;
#X obj 102 618 tabread4~ gL;
#X obj 198 643 tabread4~ gR;
#X floatatom 362 669 5 0 0 0 - - -;
#X msg 289 617 0.673;
#X connect 2 0 42 0;
#X connect 3 0 4 0;
#X connect 3 0 6 0;
#X connect 4 0 5 0;
#X connect 6 0 10 0;
#X connect 7 0 8 0;
#X connect 8 0 14 0;
#X connect 8 0 43 0;
#X connect 8 0 44 0;
#X connect 9 0 8 1;
#X connect 11 0 23 0;
#X connect 12 0 24 0;
#X connect 13 0 11 1;
#X connect 13 0 12 1;
#X connect 13 0 45 0;
#X connect 14 0 16 0;
#X connect 15 0 35 0;
#X connect 16 0 17 0;
#X connect 17 0 19 0;
#X connect 18 0 17 1;
#X connect 19 0 20 0;
#X connect 19 0 36 0;
#X connect 21 0 7 1;
#X connect 22 0 7 0;
#X connect 25 0 22 0;
#X connect 25 0 21 0;
#X connect 26 0 32 0;
#X connect 34 0 15 0;
#X connect 35 0 14 0;
#X connect 36 0 26 0;
#X connect 37 0 46 0;
#X connect 38 0 2 0;
#X connect 39 0 40 0;
#X connect 40 0 7 0;
#X connect 42 0 3 0;
#X connect 43 0 11 0;
#X connect 44 0 12 0;
#X connect 46 0 13 0;
#X restore 675 320 pd Glock;
#X obj 33 222 bng 50 250 50 0 empty empty Master_Start 0 -5 0 10 -4034
-1 -1;
#X obj 33 277 s startM;
#X obj 376 83 r startM;
#X obj 917 286 bng 15 250 50 0 empty empty empty 17 7 0 10 -4034 -1
-1;
#X obj 815 287 r stopM;
#N canvas -1688 18 1680 967 Bass 0;
#N canvas 0 50 450 250 (subpatch) 0;
#X array bL 622588 float 2;
#X coords 0 1 622588 -1 200 140 1 0 0;
#X restore 489 213 graph;
#N canvas 0 50 450 250 (subpatch) 0;
#X array bR 622588 float 2;
#X coords 0 1 622588 -1 200 140 1 0 0;
#X restore 489 379 graph;
#X obj 359 118 bng 15 250 50 0 empty empty empty 17 7 0 10 -262144
-1 -1;
#X obj 359 170 soundfiler;
#X floatatom 379 204 5 0 0 0 - - -;
#X obj 379 224 s sampleSize;
#X obj 359 250 expr 44100 / $f1;
#X obj 198 371 phasor~;
#X obj 198 412 *~;
#X obj 213 391 r sampleSize;
#X floatatom 376 281 5 0 0 0 - - -;
#X obj 102 690 *~;
#X obj 198 691 *~;
#X obj 289 640 vsl 30 50 0 1 0 0 empty empty empty 0 -9 0 10 -262144
-1 -1 1519 1;
#X obj 334 427 snapshot~;
#X obj 334 380 tgl 15 0 empty empty empty 17 7 0 10 -262144 -1 -1 1
1;
#X floatatom 334 448 5 0 0 0 - - -;
#X obj 334 488 /;
#X obj 349 468 r sampleSize;
#X floatatom 334 509 5 0 0 0 - - -;
#X obj 492 522 hsl 195 15 0 1 0 0 empty empty empty -2 -8 0 10 -262144
-1 -1 0 1;
#X msg 237 347 0;
#X msg 153 312 0;
#X obj 101 740 outlet~;
#X obj 199 780 outlet~;
#X obj 153 249 inlet;
#X obj 334 551 bng 15 250 50 0 empty empty empty 17 7 0 10 -262144
-1 -1;
#X text 355 551 sends bang on finishing playback;
#X text 268 697 volume control;
#X text 252 781 right sound outlet;
#X text 37 761 left sound outlet;
#X text 106 228 shutoff inlet;
#X obj 334 571 outlet;
#X text 356 65 Load soundfile inlet;
#X obj 334 359 loadbang;
#X obj 334 402 metro 10;
#X obj 334 532 threshold~ 0.999 0 1 0;
#X obj 289 596 loadbang;
#X obj 359 89 loadbang;
#X obj 198 143 inlet;
#X msg 198 164 0.07;
#X text 14 22 This patch plays the high rhythm;
#X msg 360 148 read -resize Bass.wav bL bR;
#X obj 102 618 tabread4~ bL;
#X obj 198 643 tabread4~ bR;
#X msg 289 617 0.31;
#X connect 2 0 42 0;
#X connect 3 0 4 0;
#X connect 3 0 6 0;
#X connect 4 0 5 0;
#X connect 6 0 10 0;
#X connect 7 0 8 0;
#X connect 8 0 14 0;
#X connect 8 0 43 0;
#X connect 8 0 44 0;
#X connect 9 0 8 1;
#X connect 11 0 23 0;
#X connect 12 0 24 0;
#X connect 13 0 11 1;
#X connect 13 0 12 1;
#X connect 14 0 16 0;
#X connect 15 0 35 0;
#X connect 16 0 17 0;
#X connect 17 0 19 0;
#X connect 18 0 17 1;
#X connect 19 0 20 0;
#X connect 19 0 36 0;
#X connect 21 0 7 1;
#X connect 22 0 7 0;
#X connect 25 0 22 0;
#X connect 25 0 21 0;
#X connect 26 0 32 0;
#X connect 34 0 15 0;
#X connect 35 0 14 0;
#X connect 36 0 26 0;
#X connect 37 0 45 0;
#X connect 38 0 2 0;
#X connect 39 0 40 0;
#X connect 40 0 7 0;
#X connect 42 0 3 0;
#X connect 43 0 11 0;
#X connect 44 0 12 0;
#X connect 45 0 13 0;
#X restore 815 320 pd Bass;
#X obj 1052 227 f 0;
#X msg 1052 203 0;
#X obj 1052 176 r stopM;
#X obj 1091 228 + 1;
#X obj 1052 248 select 1;
#X obj 1052 286 bng 15 250 50 0 empty empty empty 17 7 0 10 -4034 -1
-1;
#X obj 965 287 r stopM;
#N canvas -1688 18 1680 967 DrumsBuildUp 0;
#N canvas 0 50 450 250 (subpatch) 0;
#X array dbuL 622588 float 2;
#X coords 0 1 622588 -1 200 140 1 0 0;
#X restore 489 213 graph;
#N canvas 0 50 450 250 (subpatch) 0;
#X array dbuR 622588 float 2;
#X coords 0 1 622588 -1 200 140 1 0 0;
#X restore 489 379 graph;
#X obj 359 118 bng 15 250 50 0 empty empty empty 17 7 0 10 -262144
-1 -1;
#X obj 359 170 soundfiler;
#X floatatom 379 204 5 0 0 0 - - -;
#X obj 379 224 s sampleSize;
#X obj 359 250 expr 44100 / $f1;
#X obj 198 371 phasor~;
#X obj 198 412 *~;
#X obj 213 391 r sampleSize;
#X floatatom 376 281 5 0 0 0 - - -;
#X obj 102 690 *~;
#X obj 198 691 *~;
#X obj 289 640 vsl 30 50 0 1 0 0 empty empty empty 0 -9 0 10 -262144
-1 -1 4900 1;
#X obj 334 427 snapshot~;
#X obj 334 380 tgl 15 0 empty empty empty 17 7 0 10 -262144 -1 -1 1
1;
#X floatatom 334 448 5 0 0 0 - - -;
#X obj 334 488 /;
#X obj 349 468 r sampleSize;
#X floatatom 334 509 5 0 0 0 - - -;
#X obj 492 522 hsl 195 15 0 1 0 0 empty empty empty -2 -8 0 10 -262144
-1 -1 0 1;
#X msg 237 347 0;
#X msg 153 312 0;
#X obj 101 740 outlet~;
#X obj 199 780 outlet~;
#X obj 153 249 inlet;
#X obj 334 551 bng 15 250 50 0 empty empty empty 17 7 0 10 -262144
-1 -1;
#X text 355 551 sends bang on finishing playback;
#X text 268 697 volume control;
#X text 252 781 right sound outlet;
#X text 37 761 left sound outlet;
#X text 106 228 shutoff inlet;
#X obj 334 571 outlet;
#X text 356 65 Load soundfile inlet;
#X obj 334 359 loadbang;
#X obj 334 402 metro 10;
#X obj 334 532 threshold~ 0.999 0 1 0;
#X obj 289 596 loadbang;
#X msg 289 617 1;
#X obj 359 89 loadbang;
#X obj 198 143 inlet;
#X msg 198 164 0.07;
#X text 14 22 This patch plays the high rhythm;
#X msg 360 148 read -resize DrumsBuildUp.wav dbuL dbuR;
#X obj 102 618 tabread4~ dbuL;
#X obj 198 643 tabread4~ dbuR;
#X connect 2 0 43 0;
#X connect 3 0 4 0;
#X connect 3 0 6 0;
#X connect 4 0 5 0;
#X connect 6 0 10 0;
#X connect 7 0 8 0;
#X connect 8 0 14 0;
#X connect 8 0 44 0;
#X connect 8 0 45 0;
#X connect 9 0 8 1;
#X connect 11 0 23 0;
#X connect 12 0 24 0;
#X connect 13 0 11 1;
#X connect 13 0 12 1;
#X connect 14 0 16 0;
#X connect 15 0 35 0;
#X connect 16 0 17 0;
#X connect 17 0 19 0;
#X connect 18 0 17 1;
#X connect 19 0 20 0;
#X connect 19 0 36 0;
#X connect 21 0 7 1;
#X connect 22 0 7 0;
#X connect 25 0 22 0;
#X connect 25 0 21 0;
#X connect 26 0 32 0;
#X connect 26 0 22 0;
#X connect 34 0 15 0;
#X connect 35 0 14 0;
#X connect 36 0 26 0;
#X connect 37 0 38 0;
#X connect 38 0 13 0;
#X connect 39 0 2 0;
#X connect 40 0 41 0;
#X connect 41 0 7 0;
#X connect 43 0 3 0;
#X connect 44 0 11 0;
#X connect 45 0 12 0;
#X restore 965 320 pd DrumsBuildUp;
#X obj 1142 376 bng 15 250 50 0 empty empty empty 17 7 0 10 -4034 -1
-1;
#X obj 1055 377 r stopM;
#N canvas -1688 18 1680 967 DrumsGroove 0;
#N canvas 0 50 450 250 (subpatch) 0;
#X array dgL 622588 float 2;
#X coords 0 1 622588 -1 200 140 1 0 0;
#X restore 489 213 graph;
#N canvas 0 50 450 250 (subpatch) 0;
#X array dgR 622588 float 2;
#X coords 0 1 622588 -1 200 140 1 0 0;
#X restore 489 379 graph;
#X obj 359 118 bng 15 250 50 0 empty empty empty 17 7 0 10 -262144
-1 -1;
#X obj 359 170 soundfiler;
#X floatatom 379 204 5 0 0 0 - - -;
#X obj 379 224 s sampleSize;
#X obj 359 250 expr 44100 / $f1;
#X obj 198 371 phasor~;
#X obj 198 412 *~;
#X obj 213 391 r sampleSize;
#X floatatom 376 281 5 0 0 0 - - -;
#X obj 102 690 *~;
#X obj 198 691 *~;
#X obj 289 640 vsl 30 50 0 1 0 0 empty empty empty 0 -9 0 10 -262144
-1 -1 3200 1;
#X obj 334 427 snapshot~;
#X obj 334 380 tgl 15 0 empty empty empty 17 7 0 10 -262144 -1 -1 1
1;
#X floatatom 334 448 5 0 0 0 - - -;
#X obj 334 488 /;
#X obj 349 468 r sampleSize;
#X floatatom 334 509 5 0 0 0 - - -;
#X obj 492 522 hsl 195 15 0 1 0 0 empty empty empty -2 -8 0 10 -262144
-1 -1 0 1;
#X msg 237 347 0;
#X msg 153 312 0;
#X obj 101 740 outlet~;
#X obj 199 780 outlet~;
#X obj 153 249 inlet;
#X obj 334 551 bng 15 250 50 0 empty empty empty 17 7 0 10 -262144
-1 -1;
#X text 355 551 sends bang on finishing playback;
#X text 268 697 volume control;
#X text 252 781 right sound outlet;
#X text 37 761 left sound outlet;
#X text 106 228 shutoff inlet;
#X obj 334 571 outlet;
#X text 356 65 Load soundfile inlet;
#X obj 334 359 loadbang;
#X obj 334 402 metro 10;
#X obj 334 532 threshold~ 0.999 0 1 0;
#X obj 289 596 loadbang;
#X obj 359 89 loadbang;
#X obj 198 143 inlet;
#X msg 198 164 0.07;
#X text 14 22 This patch plays the high rhythm;
#X msg 360 148 read -resize DrumsGroove.wav dgL dgR;
#X obj 102 618 tabread4~ dgL;
#X obj 198 643 tabread4~ dgR;
#X floatatom 370 671 5 0 0 0 - - -;
#X msg 289 617 0.653;
#X connect 2 0 42 0;
#X connect 3 0 4 0;
#X connect 3 0 6 0;
#X connect 4 0 5 0;
#X connect 6 0 10 0;
#X connect 7 0 8 0;
#X connect 8 0 14 0;
#X connect 8 0 43 0;
#X connect 8 0 44 0;
#X connect 9 0 8 1;
#X connect 11 0 23 0;
#X connect 12 0 24 0;
#X connect 13 0 11 1;
#X connect 13 0 12 1;
#X connect 13 0 45 0;
#X connect 14 0 16 0;
#X connect 15 0 35 0;
#X connect 16 0 17 0;
#X connect 17 0 19 0;
#X connect 18 0 17 1;
#X connect 19 0 20 0;
#X connect 19 0 36 0;
#X connect 21 0 7 1;
#X connect 22 0 7 0;
#X connect 25 0 22 0;
#X connect 25 0 21 0;
#X connect 26 0 32 0;
#X connect 34 0 15 0;
#X connect 35 0 14 0;
#X connect 36 0 26 0;
#X connect 37 0 46 0;
#X connect 38 0 2 0;
#X connect 39 0 40 0;
#X connect 40 0 7 0;
#X connect 42 0 3 0;
#X connect 43 0 11 0;
#X connect 44 0 12 0;
#X connect 46 0 13 0;
#X restore 1055 410 pd DrumsGroove;
#X obj 1292 386 bng 15 250 50 0 empty empty empty 17 7 0 10 -4034 -1
-1;
#X obj 1205 387 r stopM;
#N canvas -1688 18 1680 967 PianoMelodyG 0;
#N canvas 0 50 450 250 (subpatch) 0;
#X array pmgL 622588 float 2;
#X coords 0 1 622588 -1 200 140 1 0 0;
#X restore 489 213 graph;
#N canvas 0 50 450 250 (subpatch) 0;
#X array pmgR 622588 float 2;
#X coords 0 1 622588 -1 200 140 1 0 0;
#X restore 489 379 graph;
#X obj 359 118 bng 15 250 50 0 empty empty empty 17 7 0 10 -262144
-1 -1;
#X obj 359 170 soundfiler;
#X floatatom 379 204 5 0 0 0 - - -;
#X obj 379 224 s sampleSize;
#X obj 359 250 expr 44100 / $f1;
#X obj 198 371 phasor~;
#X obj 198 412 *~;
#X obj 213 391 r sampleSize;
#X floatatom 376 281 5 0 0 0 - - -;
#X obj 102 690 *~;
#X obj 198 691 *~;
#X obj 289 640 vsl 30 50 0 1 0 0 empty empty empty 0 -9 0 10 -262144
-1 -1 3200 1;
#X obj 334 427 snapshot~;
#X obj 334 380 tgl 15 0 empty empty empty 17 7 0 10 -262144 -1 -1 1
1;
#X floatatom 334 448 5 0 0 0 - - -;
#X obj 334 488 /;
#X obj 349 468 r sampleSize;
#X floatatom 334 509 5 0 0 0 - - -;
#X obj 492 522 hsl 195 15 0 1 0 0 empty empty empty -2 -8 0 10 -262144
-1 -1 0 1;
#X msg 237 347 0;
#X msg 153 312 0;
#X obj 101 740 outlet~;
#X obj 199 780 outlet~;
#X obj 153 249 inlet;
#X obj 334 551 bng 15 250 50 0 empty empty empty 17 7 0 10 -262144
-1 -1;
#X text 355 551 sends bang on finishing playback;
#X text 268 697 volume control;
#X text 252 781 right sound outlet;
#X text 37 761 left sound outlet;
#X text 106 228 shutoff inlet;
#X obj 334 571 outlet;
#X text 356 65 Load soundfile inlet;
#X obj 334 359 loadbang;
#X obj 334 402 metro 10;
#X obj 334 532 threshold~ 0.999 0 1 0;
#X obj 289 596 loadbang;
#X obj 359 89 loadbang;
#X obj 198 143 inlet;
#X msg 198 164 0.07;
#X text 14 22 This patch plays the high rhythm;
#X msg 360 148 read -resize PianoMelodyG.wav pmgL pmgR;
#X obj 101 618 tabread4~ pmgL;
#X obj 198 643 tabread4~ pmgR;
#X floatatom 373 669 5 0 0 0 - - -;
#X msg 289 617 0.653;
#X connect 2 0 42 0;
#X connect 3 0 4 0;
#X connect 3 0 6 0;
#X connect 4 0 5 0;
#X connect 6 0 10 0;
#X connect 7 0 8 0;
#X connect 8 0 14 0;
#X connect 8 0 43 0;
#X connect 8 0 44 0;
#X connect 9 0 8 1;
#X connect 11 0 23 0;
#X connect 12 0 24 0;
#X connect 13 0 11 1;
#X connect 13 0 12 1;
#X connect 13 0 45 0;
#X connect 14 0 16 0;
#X connect 15 0 35 0;
#X connect 16 0 17 0;
#X connect 17 0 19 0;
#X connect 18 0 17 1;
#X connect 19 0 20 0;
#X connect 19 0 36 0;
#X connect 21 0 7 1;
#X connect 22 0 7 0;
#X connect 25 0 22 0;
#X connect 25 0 21 0;
#X connect 26 0 32 0;
#X connect 34 0 15 0;
#X connect 35 0 14 0;
#X connect 36 0 26 0;
#X connect 37 0 46 0;
#X connect 38 0 2 0;
#X connect 39 0 40 0;
#X connect 40 0 7 0;
#X connect 42 0 3 0;
#X connect 43 0 11 0;
#X connect 44 0 12 0;
#X connect 46 0 13 0;
#X restore 1205 420 pd PianoMelodyG;
#X obj 1422 386 bng 15 250 50 0 empty empty empty 17 7 0 10 -4034 -1
-1;
#X obj 1335 387 r stopM;
#N canvas -1688 18 1680 967 PianoRhythmC 0;
#N canvas 0 50 450 250 (subpatch) 0;
#X array prcL 622588 float 2;
#X coords 0 1 622588 -1 200 140 1 0 0;
#X restore 489 213 graph;
#N canvas 0 50 450 250 (subpatch) 0;
#X array prcR 622588 float 2;
#X coords 0 1 622588 -1 200 140 1 0 0;
#X restore 489 379 graph;
#X obj 359 118 bng 15 250 50 0 empty empty empty 17 7 0 10 -262144
-1 -1;
#X obj 359 170 soundfiler;
#X floatatom 379 204 5 0 0 0 - - -;
#X obj 379 224 s sampleSize;
#X obj 359 250 expr 44100 / $f1;
#X obj 198 371 phasor~;
#X obj 198 412 *~;
#X obj 213 391 r sampleSize;
#X floatatom 376 281 5 0 0 0 - - -;
#X obj 102 690 *~;
#X obj 198 691 *~;
#X obj 289 640 vsl 30 50 0 1 0 0 empty empty empty 0 -9 0 10 -262144
-1 -1 3200 1;
#X obj 334 427 snapshot~;
#X obj 334 380 tgl 15 0 empty empty empty 17 7 0 10 -262144 -1 -1 1
1;
#X floatatom 334 448 5 0 0 0 - - -;
#X obj 334 488 /;
#X obj 349 468 r sampleSize;
#X floatatom 334 509 5 0 0 0 - - -;
#X obj 492 522 hsl 195 15 0 1 0 0 empty empty empty -2 -8 0 10 -262144
-1 -1 0 1;
#X msg 237 347 0;
#X msg 153 312 0;
#X obj 101 740 outlet~;
#X obj 199 780 outlet~;
#X obj 153 249 inlet;
#X obj 334 551 bng 15 250 50 0 empty empty empty 17 7 0 10 -262144
-1 -1;
#X text 355 551 sends bang on finishing playback;
#X text 268 697 volume control;
#X text 252 781 right sound outlet;
#X text 37 761 left sound outlet;
#X text 106 228 shutoff inlet;
#X obj 334 571 outlet;
#X text 356 65 Load soundfile inlet;
#X obj 334 359 loadbang;
#X obj 334 402 metro 10;
#X obj 334 532 threshold~ 0.999 0 1 0;
#X obj 289 596 loadbang;
#X obj 359 89 loadbang;
#X obj 198 143 inlet;
#X msg 198 164 0.07;
#X text 14 22 This patch plays the high rhythm;
#X msg 360 148 read -resize PianoRhythmC.wav prcL prcR;
#X obj 198 643 tabread4~ prcR;
#X obj 101 618 tabread4~ prcL;
#X floatatom 346 682 5 0 0 0 - - -;
#X msg 289 617 0.653;
#X connect 2 0 42 0;
#X connect 3 0 4 0;
#X connect 3 0 6 0;
#X connect 4 0 5 0;
#X connect 6 0 10 0;
#X connect 7 0 8 0;
#X connect 8 0 14 0;
#X connect 8 0 43 0;
#X connect 8 0 44 0;
#X connect 9 0 8 1;
#X connect 11 0 23 0;
#X connect 12 0 24 0;
#X connect 13 0 11 1;
#X connect 13 0 12 1;
#X connect 13 0 45 0;
#X connect 14 0 16 0;
#X connect 15 0 35 0;
#X connect 16 0 17 0;
#X connect 17 0 19 0;
#X connect 18 0 17 1;
#X connect 19 0 20 0;
#X connect 19 0 36 0;
#X connect 21 0 7 1;
#X connect 22 0 7 0;
#X connect 25 0 22 0;
#X connect 25 0 21 0;
#X connect 26 0 32 0;
#X connect 34 0 15 0;
#X connect 35 0 14 0;
#X connect 36 0 26 0;
#X connect 37 0 46 0;
#X connect 38 0 2 0;
#X connect 39 0 40 0;
#X connect 40 0 7 0;
#X connect 42 0 3 0;
#X connect 43 0 12 0;
#X connect 44 0 11 0;
#X connect 46 0 13 0;
#X restore 1335 420 pd PianoRhythmC;
#X obj 1482 496 bng 15 250 50 0 empty empty empty 17 7 0 10 -4034 -1
-1;
#X obj 1395 497 r stopM;
#N canvas -1688 18 1680 967 ViolaRhythmC 0;
#N canvas 0 50 450 250 (subpatch) 0;
#X array vrcL 622588 float 2;
#X coords 0 1 622588 -1 200 140 1 0 0;
#X restore 489 213 graph;
#N canvas 0 50 450 250 (subpatch) 0;
#X array vrcR 622588 float 2;
#X coords 0 1 622588 -1 200 140 1 0 0;
#X restore 489 379 graph;
#X obj 359 118 bng 15 250 50 0 empty empty empty 17 7 0 10 -262144
-1 -1;
#X obj 359 170 soundfiler;
#X floatatom 379 204 5 0 0 0 - - -;
#X obj 379 224 s sampleSize;
#X obj 359 250 expr 44100 / $f1;
#X obj 198 371 phasor~;
#X obj 198 412 *~;
#X obj 213 391 r sampleSize;
#X floatatom 376 281 5 0 0 0 - - -;
#X obj 102 690 *~;
#X obj 198 691 *~;
#X obj 289 640 vsl 30 50 0 1 0 0 empty empty empty 0 -9 0 10 -262144
-1 -1 3699 1;
#X obj 334 427 snapshot~;
#X obj 334 380 tgl 15 0 empty empty empty 17 7 0 10 -262144 -1 -1 1
1;
#X floatatom 334 448 5 0 0 0 - - -;
#X obj 334 488 /;
#X obj 349 468 r sampleSize;
#X floatatom 334 509 5 0 0 0 - - -;
#X obj 492 522 hsl 195 15 0 1 0 0 empty empty empty -2 -8 0 10 -262144
-1 -1 0 1;
#X msg 237 347 0;
#X msg 153 312 0;
#X obj 101 740 outlet~;
#X obj 199 780 outlet~;
#X obj 153 249 inlet;
#X obj 334 551 bng 15 250 50 0 empty empty empty 17 7 0 10 -262144
-1 -1;
#X text 355 551 sends bang on finishing playback;
#X text 268 697 volume control;
#X text 252 781 right sound outlet;
#X text 37 761 left sound outlet;
#X text 106 228 shutoff inlet;
#X obj 334 571 outlet;
#X text 356 65 Load soundfile inlet;
#X obj 334 359 loadbang;
#X obj 334 402 metro 10;
#X obj 334 532 threshold~ 0.999 0 1 0;
#X obj 289 596 loadbang;
#X obj 359 89 loadbang;
#X obj 198 143 inlet;
#X msg 198 164 0.07;
#X text 14 22 This patch plays the high rhythm;
#X msg 360 147 read -resize ViolaRhythmC.wav vrcL vrcR;
#X obj 101 618 tabread4~ vrcL;
#X obj 198 643 tabread4~ vrcR;
#X floatatom 339 676 5 0 0 0 - - -;
#X msg 289 617 0.755;
#X connect 2 0 42 0;
#X connect 3 0 4 0;
#X connect 3 0 6 0;
#X connect 4 0 5 0;
#X connect 6 0 10 0;
#X connect 7 0 8 0;
#X connect 8 0 14 0;
#X connect 8 0 43 0;
#X connect 8 0 44 0;
#X connect 9 0 8 1;
#X connect 11 0 23 0;
#X connect 12 0 24 0;
#X connect 13 0 11 1;
#X connect 13 0 12 1;
#X connect 13 0 45 0;
#X connect 14 0 16 0;
#X connect 15 0 35 0;
#X connect 16 0 17 0;
#X connect 17 0 19 0;
#X connect 18 0 17 1;
#X connect 19 0 20 0;
#X connect 19 0 36 0;
#X connect 21 0 7 1;
#X connect 22 0 7 0;
#X connect 25 0 22 0;
#X connect 25 0 21 0;
#X connect 26 0 32 0;
#X connect 34 0 15 0;
#X connect 35 0 14 0;
#X connect 36 0 26 0;
#X connect 37 0 46 0;
#X connect 38 0 2 0;
#X connect 39 0 40 0;
#X connect 40 0 7 0;
#X connect 42 0 3 0;
#X connect 43 0 11 0;
#X connect 44 0 12 0;
#X connect 46 0 13 0;
#X restore 1395 530 pd ViolaRhythmC;
#X obj 13 22 loadbang;
#X connect 2 0 0 0;
#X connect 3 0 1 0;
#X connect 3 1 1 1;
#X connect 3 2 10 0;
#X connect 4 0 3 1;
#X connect 5 0 1 0;
#X connect 5 1 1 1;
#X connect 5 2 12 0;
#X connect 5 2 14 0;
#X connect 5 2 20 0;
#X connect 5 2 23 0;
#X connect 6 0 7 0;
#X connect 8 0 3 0;
#X connect 9 0 5 0;
#X connect 10 0 5 1;
#X connect 11 0 1 0;
#X connect 11 1 1 1;
#X connect 12 0 11 1;
#X connect 13 0 11 0;
#X connect 14 0 16 1;
#X connect 15 0 16 0;
#X connect 16 0 1 0;
#X connect 16 1 1 1;
#X connect 17 0 18 0;
#X connect 19 0 4 0;
#X connect 20 0 22 1;
#X connect 21 0 22 0;
#X connect 22 0 1 0;
#X connect 22 1 1 1;
#X connect 22 2 34 0;
#X connect 22 2 37 0;
#X connect 23 0 26 0;
#X connect 23 0 27 0;
#X connect 24 0 23 0;
#X connect 25 0 24 0;
#X connect 26 0 23 1;
#X connect 27 0 28 0;
#X connect 28 0 30 1;
#X connect 29 0 30 0;
#X connect 30 0 1 0;
#X connect 30 1 1 1;
#X connect 30 2 31 0;
#X connect 31 0 33 1;
#X connect 32 0 33 0;
#X connect 33 0 1 0;
#X connect 33 1 1 1;
#X connect 34 0 36 1;
#X connect 35 0 36 0;
#X connect 36 0 1 0;
#X connect 36 1 1 1;
#X connect 37 0 39 1;
#X connect 38 0 39 0;
#X connect 39 0 1 0;
#X connect 39 1 1 1;
#X connect 39 2 40 0;
#X connect 40 0 42 1;
#X connect 41 0 42 0;
#X connect 42 0 1 0;
#X connect 42 1 1 1;
#X connect 43 0 2 0;
#X connect 43 0 17 0;
